<?xml version="1.0" standalone="no"?>
<!DOCTYPE svg PUBLIC "-//W3C//DTD SVG 20010904//EN" "http://www.w3.org/TR/2001/REC-SVG-20010904/DTD/svg10.dtd">
<svg xmlns="http://www.w3.org/2000/svg" version="1.0" width="300" height="269" viewBox="0 0 300.000000 269.000000" preserveAspectRatio="xMidYMid meet">

<g transform="translate(0.000000,269.000000) scale(0.100000,-0.100000)" fill="#000000" stroke="none">
<path d="M1347 2683 c-4 -3 -7 -30 -7 -59 0 -82 -5 -84 -181 -84 -114 0 -158 -4 -189 -16 -72 -29 -70 -14 -70 -561 l0 -488 56 63 c67 74 157 141 248 182 186 85 427 80 614 -11 78 -38 197 -132 237 -187 17 -23 33 -42 38 -42 4 0 7 218 7 484 l0 483 -23 34 c-32 49 -70 58 -239 58 -175 1 -178 3 -178 92 l0 59 -153 0 c-85 0 -157 -3 -160 -7z m293 -53 c0 -54 17 -87 53 -100 16 -5 93 -10 171 -10 166 0 197 -11 215 -77 7 -24 11 -203 11 -488 l0 -450 -40 47 c-84 98 -229 185 -370 224 -97 27 -272 25 -373 -4 -138 -39 -273 -123 -357 -220 l-40 -47 0 461 c0 312 4 471 11 493 18 52 49 61 212 61 79 0 158 5 174 10 36 13 53 46 53 100 l0 40 140 0 140 0 0 -40z"/>
<path d="M1224 2463 l-162 -3 -5 -28 c-6 -29 -40 -52 -77 -52 -19 0 -20 -8 -20 -218 l0 -219 41 -12 c31 -9 44 -20 52 -42 l11 -29 232 0 c127 0 326 -3 442 -7 186 -5 212 -4 212 9 0 26 38 65 70 71 l30 7 0 220 0 220 -23 0 c-33 0 -65 26 -72 60 l-7 30 -281 -2 c-155 -1 -355 -4 -443 -5z m716 -27 c0 -24 40 -64 70 -71 l30 -7 -2 -200 -3 -201 -35 -12 c-23 -7 -40 -22 -50 -43 l-15 -32 -432 0 c-414 0 -433 1 -433 18 0 25 -30 50 -68 58 l-32 7 0 202 0 203 42 14 c40 13 50 23 62 61 5 16 35 17 436 17 357 0 430 -2 430 -14z"/>
<path d="M1080 2397 c-11 -24 -24 -34 -52 -40 l-38 -9 0 -194 0 -194 25 0 c26 0 75 -39 75 -60 0 -7 133 -10 414 -10 l415 0 13 28 c8 17 27 31 48 38 l35 12 3 189 2 189 -37 10 c-29 7 -41 17 -52 42 l-15 32 -410 0 -411 0 -15 -33z m840 -10 c10 -22 26 -35 48 -42 l32 -9 0 -183 c0 -172 -1 -183 -19 -183 -24 0 -71 -37 -71 -56 0 -12 -61 -14 -404 -14 l-404 0 -6 23 c-5 23 -42 47 -71 47 -13 0 -15 30 -15 185 0 155 2 185 15 185 28 0 66 24 71 46 3 13 15 25 27 27 12 2 193 5 402 5 l380 2 15 -33z"/>
<path d="M1641 2331 c-29 -29 -41 -84 -41 -184 0 -87 16 -152 43 -169 27 -17 57 -8 77 25 21 34 27 102 10 112 -6 4 -10 -8 -10 -29 0 -47 -16 -86 -35 -86 -25 0 -35 44 -35 154 0 96 12 166 29 166 17 0 31 -27 31 -62 0 -22 5 -38 11 -38 8 0 10 17 7 52 -7 73 -47 99 -87 59z"/>
<path d="M1072 2188 c6 -165 16 -205 55 -214 65 -17 83 31 83 221 0 200 -19 191 -22 -11 -3 -136 -5 -158 -20 -168 -36 -22 -43 5 -43 169 l0 155 -29 0 -29 0 5 -152z"/>
<path d="M1260 2161 c0 -126 3 -181 11 -181 8 0 10 32 7 104 -2 58 -1 103 2 100 3 -3 19 -49 35 -102 26 -81 34 -98 53 -100 l22 -3 0 180 c0 114 -4 181 -10 181 -6 0 -10 -47 -11 -117 l-1 -118 -38 115 c-25 78 -43 116 -54 118 -14 3 -16 -15 -16 -177z"/>
<path d="M1470 2332 c0 -10 -38 -290 -45 -324 -5 -33 20 -40 28 -8 3 12 14 20 27 20 13 0 24 -8 27 -20 4 -14 14 -20 32 -20 l27 0 -23 168 c-12 92 -23 173 -23 180 0 13 -50 17 -50 4z m24 -209 c6 -80 6 -83 -15 -83 -21 0 -22 3 -15 61 3 34 6 76 6 92 0 62 18 10 24 -70z"/>
<path d="M1780 2160 l0 -180 25 0 c25 0 25 1 25 85 l0 85 35 0 35 0 0 -85 c0 -69 3 -85 15 -85 13 0 15 27 15 180 0 153 -2 180 -15 180 -12 0 -15 -17 -15 -91 l0 -90 -32 3 -33 3 -3 88 c-3 85 -3 87 -27 87 l-25 0 0 -180z"/>
<path d="M1402 2168 c5 -15 28 -18 29 -3 0 6 -7 12 -17 13 -10 3 -15 -1 -12 -10z"/>
<path d="M1552 2168 c6 -18 28 -21 28 -4 0 9 -7 16 -16 16 -9 0 -14 -5 -12 -12z"/>
<path d="M25 2655 c-34 -33 -34 -87 0 -120 21 -22 33 -25 100 -25 43 0 75 4 75 10 0 6 -31 10 -73 10 -82 0 -107 15 -107 63 0 37 29 49 111 45 66 -3 69 -2 69 20 0 21 -4 22 -75 22 -67 0 -79 -3 -100 -25z"/>
<path d="M460 2650 c0 -26 4 -30 28 -30 34 0 109 -34 140 -63 13 -12 32 -38 42 -58 17 -33 19 -83 23 -780 4 -805 4 -799 60 -939 135 -332 535 -547 887 -476 330 67 557 272 642 581 21 78 22 96 27 836 l6 755 27 42 c32 48 98 90 159 100 38 6 44 11 47 35 l3 27 -145 0 -146 0 0 -832 c-1 -884 -2 -919 -49 -1036 -53 -134 -182 -281 -317 -360 -38 -23 -112 -56 -164 -73 -89 -31 -104 -33 -230 -33 -126 0 -141 2 -229 32 -135 47 -222 101 -321 201 -63 63 -96 107 -127 166 -78 151 -75 102 -73 1072 l1 863 -146 0 -145 0 0 -30z"/>
<path d="M799 1888 c-1 -436 -1 -822 1 -858 11 -289 209 -527 506 -612 111 -31 277 -31 388 0 248 71 422 240 492 477 17 55 18 132 21 923 l4 862 -146 0 -146 0 3 -27 c2 -23 10 -29 41 -35 49 -10 107 -40 133 -70 54 -59 52 -25 56 -838 l3 -755 -27 -81 c-66 -193 -211 -334 -413 -401 -71 -24 -96 -27 -215 -28 -115 0 -145 3 -204 23 -217 73 -353 201 -423 397 l-28 80 -3 737 c-2 508 1 750 8 778 20 74 101 144 182 158 37 6 43 11 46 35 l3 27 -140 0 -141 0 -1 -792z"/>
<path d="M2900 2668 c-6 -7 -20 -28 -30 -45 -11 -18 -27 -33 -35 -33 -21 0 -31 29 -17 51 15 24 15 29 -2 29 -20 0 -29 -47 -14 -78 11 -22 20 -27 48 -27 28 0 38 6 58 35 15 22 31 35 45 35 28 0 34 -30 11 -56 -16 -18 -16 -19 4 -19 25 0 36 29 27 70 -10 45 -69 68 -95 38z"/>
<path d="M2887 2452 c-49 -21 -89 -42 -89 -47 0 -6 42 -27 93 -47 105 -43 99 -41 99 -28 0 6 -11 15 -25 20 -20 8 -25 16 -25 45 0 29 4 36 25 41 18 4 25 13 25 30 0 13 -3 24 -7 23 -5 0 -48 -17 -96 -37z m33 -57 c0 -27 -10 -31 -42 -14 -21 11 -21 12 3 25 34 19 39 17 39 -11z"/>
<path d="M576 2441 c-4 -5 -39 -9 -79 -9 -95 0 -97 0 -97 -12 0 -12 160 -14 175 -2 10 7 18 32 11 32 -3 0 -7 -4 -10 -9z"/>
<path d="M2412 2438 c2 -7 8 -16 13 -20 15 -12 175 -10 175 2 0 11 -2 12 -90 12 -36 0 -73 5 -83 10 -12 6 -17 5 -15 -4z"/>
<path d="M10 2430 c0 -6 29 -10 68 -10 l67 -1 -67 -63 c-38 -34 -68 -68 -68 -74 0 -8 28 -12 95 -12 57 0 95 4 95 10 0 6 -28 10 -62 10 l-63 1 63 58 c88 83 85 91 -33 91 -57 0 -95 -4 -95 -10z"/>
<path d="M377 2384 c-4 -4 -17 -9 -29 -11 -24 -4 -48 -21 -48 -35 0 -5 9 -4 19 2 25 13 78 13 86 0 4 -6 -7 -10 -26 -10 -24 0 -30 -3 -22 -11 13 -13 65 -8 70 6 4 14 -41 68 -50 59z"/>
<path d="M440 2381 c0 -6 5 -13 10 -16 6 -3 10 -3 10 2 0 4 11 8 24 8 13 0 22 -3 19 -7 -2 -5 -11 -8 -20 -8 -9 0 -14 -3 -10 -6 10 -10 47 7 47 22 0 10 -12 14 -40 14 -22 0 -40 -4 -40 -9z"/>
<path d="M565 2381 c-3 -5 -1 -12 5 -16 5 -3 10 1 10 9 0 18 -6 21 -15 7z"/>
<path d="M2427 2383 c-4 -3 -7 -11 -7 -17 0 -6 5 -5 12 2 6 6 9 14 7 17 -3 3 -9 2 -12 -2z"/>
<path d="M2480 2381 c0 -14 28 -33 42 -28 8 4 7 6 -4 6 -9 1 -19 5 -22 10 -3 5 5 8 19 7 14 0 25 -5 25 -9 0 -5 5 -5 10 -2 22 13 8 25 -30 25 -22 0 -40 -4 -40 -9z"/>
<path d="M2592 2363 c-10 -15 -17 -34 -15 -40 5 -15 59 -17 68 -3 4 6 -5 10 -19 10 -14 0 -26 5 -26 10 0 13 56 13 81 0 13 -7 19 -7 19 -1 0 14 -49 46 -57 37 -3 -3 -12 -1 -19 5 -9 7 -17 2 -32 -18z"/>
<path d="M571 2324 c0 -11 3 -14 6 -6 3 7 2 16 -1 19 -3 4 -6 -2 -5 -13z"/>
<path d="M2420 2325 c0 -8 2 -15 4 -15 2 0 6 7 10 15 3 8 1 15 -4 15 -6 0 -10 -7 -10 -15z"/>
<path d="M480 2293 c0 -5 6 -18 14 -28 13 -18 14 -18 21 4 4 12 4 25 1 28 -3 4 -6 1 -6 -7 0 -10 -3 -10 -15 0 -8 7 -15 8 -15 3z"/>
<path d="M561 2287 c-1 -10 -5 -15 -11 -12 -5 3 -10 1 -10 -5 0 -10 28 -26 34 -19 1 2 -1 15 -5 29 -5 17 -7 19 -8 7z"/>
<path d="M2431 2277 c-1 -29 18 -34 27 -7 3 7 0 10 -6 6 -6 -3 -13 2 -15 11 -3 11 -5 7 -6 -10z"/>
<path d="M2510 2291 c0 -7 -6 -11 -14 -8 -10 4 -12 0 -9 -14 3 -10 9 -19 13 -19 9 0 21 42 15 49 -3 2 -5 -1 -5 -8z"/>
<path d="M431 2263 c12 -36 23 -36 32 -2 4 16 3 19 -5 11 -8 -8 -15 -7 -25 6 -11 14 -11 12 -2 -15z"/>
<path d="M2561 2273 c-8 -13 -10 -14 -11 -4 0 8 -3 12 -6 8 -8 -7 5 -47 16 -47 4 0 10 14 12 30 5 35 3 37 -11 13z"/>
<path d="M2812 2258 c-7 -7 -12 -36 -12 -65 l0 -53 95 0 c94 0 95 0 95 24 0 22 -3 24 -40 19 -37 -5 -40 -4 -40 18 0 55 -63 92 -98 57z m62 -34 c9 -3 16 -15 16 -25 0 -15 -7 -19 -34 -19 -39 0 -53 14 -36 35 13 16 29 19 54 9z"/>
<path d="M543 2223 c4 -16 1 -20 -11 -16 -9 4 -13 2 -9 -4 8 -12 47 -24 47 -15 -1 4 -8 18 -16 32 -14 23 -15 23 -11 3z"/>
<path d="M2443 2217 c-7 -15 -13 -30 -13 -32 0 -7 41 8 47 18 3 5 1 7 -5 3 -6 -3 -12 3 -14 16 -3 21 -4 21 -15 -5z"/>
<path d="M468 2201 c3 -25 7 -29 18 -20 8 6 14 19 13 28 0 11 -2 12 -6 3 -4 -10 -8 -9 -18 4 -10 15 -11 13 -7 -15z"/>
<path d="M2525 2221 c-3 -6 -11 -9 -16 -6 -12 8 -11 -2 3 -28 11 -22 12 -21 19 7 9 32 6 45 -6 27z"/>
<path d="M10 2173 c0 -22 3 -23 95 -23 92 0 95 1 95 23 0 21 -3 22 -95 22 -92 0 -95 -1 -95 -22z"/>
<path d="M310 2113 c0 -100 11 -151 41 -185 l20 -23 -5 34 c-3 18 -6 71 -6 117 0 52 -4 84 -11 84 -7 0 -8 -29 -4 -87 4 -57 3 -83 -3 -73 -14 22 -24 142 -15 168 9 23 12 21 97 -47 108 -88 142 -107 162 -90 19 16 18 28 -3 23 -12 -3 -59 27 -130 81 -62 47 -119 85 -128 85 -12 0 -15 -16 -15 -87z"/>
<path d="M2625 2174 c-100 -84 -190 -145 -207 -141 -22 6 -24 -6 -3 -23 22 -18 43 -6 154 84 110 89 118 87 107 -27 -10 -107 -28 -121 -20 -14 4 61 3 87 -5 87 -7 0 -11 -33 -11 -99 0 -55 -3 -106 -6 -115 -13 -33 14 -15 32 22 14 27 20 65 22 145 3 99 2 107 -15 107 -10 -1 -31 -12 -48 -26z"/>
<path d="M500 2174 c0 -6 5 -15 12 -22 9 -9 8 -12 -7 -12 -15 0 -16 -3 -7 -12 9 -9 18 -8 39 2 20 9 24 14 13 18 -8 2 -23 11 -32 20 -10 8 -18 11 -18 6z"/>
<path d="M2471 2158 c-21 -16 -22 -21 -10 -29 19 -12 36 -11 44 1 3 6 -1 10 -11 10 -14 0 -14 3 -4 15 20 24 8 26 -19 3z"/>
<path d="M371 2110 c-1 -23 19 -89 28 -95 5 -3 11 13 13 34 2 22 0 37 -4 35 -5 -3 -8 -13 -9 -22 -1 -9 -7 1 -14 23 -8 22 -14 33 -14 25z"/>
<path d="M2621 2103 c0 -12 -4 -30 -8 -40 -6 -16 -8 -15 -14 7 -6 20 -7 17 -8 -17 -1 -24 3 -43 9 -43 12 0 33 76 27 98 -3 12 -5 11 -6 -5z"/>
<path d="M98 2062 c-49 -19 -88 -41 -88 -47 0 -7 40 -29 88 -49 95 -39 102 -41 102 -27 0 6 -27 20 -60 32 -33 12 -63 25 -65 30 -3 4 24 18 60 30 54 20 65 28 65 46 0 28 4 29 -102 -15z"/>
<path d="M2887 2027 c-53 -23 -96 -45 -94 -50 2 -6 36 -23 77 -39 41 -16 85 -33 98 -38 16 -7 22 -6 22 4 0 8 -11 17 -25 20 -21 5 -25 12 -25 41 0 29 5 37 25 45 18 7 25 17 25 35 0 14 -1 24 -2 24 -2 -1 -47 -20 -101 -42z m33 -62 c0 -28 -5 -30 -39 -11 -23 13 -23 14 -5 24 30 18 44 14 44 -13z"/>
<path d="M431 2029 c0 -15 8 -37 19 -50 l19 -24 -1 45 c0 40 -1 42 -8 15 -7 -30 -13 -25 -23 20 -4 15 -5 14 -6 -6z"/>
<path d="M2532 2000 l-1 -45 19 24 c11 13 19 33 19 45 -2 20 -2 20 -6 -1 -2 -13 -8 -23 -13 -23 -5 0 -11 10 -13 23 -2 12 -5 2 -5 -23z"/>
<path d="M491 1999 c-1 -15 8 -37 19 -50 19 -24 19 -24 20 -2 0 12 3 30 6 40 3 10 -1 7 -9 -7 l-15 -25 -10 35 c-9 31 -10 32 -11 9z"/>
<path d="M2500 1991 c0 -26 -17 -36 -23 -14 -3 10 -5 2 -6 -17 l0 -35 19 24 c18 21 28 61 15 61 -3 0 -5 -9 -5 -19z"/>
<path d="M384 1956 c4 -45 29 -95 52 -103 5 -2 10 21 10 52 1 30 -3 55 -7 55 -5 0 -9 -12 -9 -26 0 -40 -23 -24 -37 27 l-13 44 4 -49z"/>
<path d="M2610 1974 c0 -29 -16 -64 -30 -64 -6 0 -10 11 -10 25 0 14 -3 25 -7 25 -5 0 -8 -25 -8 -55 0 -62 9 -65 43 -15 19 29 32 110 17 110 -3 0 -5 -12 -5 -26z"/>
<path d="M551 1968 c-1 -25 10 -48 29 -58 14 -8 17 -4 18 23 1 30 0 31 -13 13 -11 -15 -15 -16 -19 -5 -14 44 -14 45 -15 27z"/>
<path d="M2440 1963 c0 -28 -11 -35 -25 -17 -10 14 -12 12 -12 -14 0 -27 3 -30 19 -21 18 10 35 55 24 66 -3 4 -6 -3 -6 -14z"/>
<path d="M463 1900 c5 -43 31 -90 47 -90 6 0 9 26 8 58 -1 36 -3 45 -5 24 -6 -44 -27 -36 -31 11 -2 20 -8 37 -14 37 -7 0 -9 -15 -5 -40z"/>
<path d="M2520 1901 c0 -48 -17 -63 -26 -24 -11 51 -12 49 -13 -17 l-1 -65 26 27 c28 28 47 118 25 118 -6 0 -11 -17 -11 -39z"/>
<path d="M312 1856 c-2 -85 11 -147 37 -170 15 -13 16 -5 11 97 -4 99 -5 103 -8 40 -1 -40 -7 -73 -12 -73 -13 0 -19 32 -23 115 l-3 70 -2 -79z"/>
<path d="M2681 1848 c-2 -126 -26 -129 -34 -3 -1 28 -5 -1 -7 -63 -3 -61 -3 -112 0 -112 3 0 14 13 23 30 21 36 36 148 26 198 -5 28 -7 15 -8 -50z"/>
<path d="M535 1864 c7 -42 21 -67 44 -81 14 -9 16 -3 17 43 1 30 -2 54 -7 54 -5 0 -9 -9 -9 -21 0 -30 -24 -18 -28 14 -2 15 -8 27 -14 27 -6 0 -8 -13 -3 -36z"/>
<path d="M2448 1873 c-4 -32 -28 -44 -28 -14 0 12 -4 21 -8 21 -5 0 -8 -24 -8 -54 1 -52 1 -53 23 -39 22 15 43 61 43 94 0 29 -18 22 -22 -8z"/>
<path d="M10 1825 c0 -33 4 -55 11 -55 6 0 9 14 7 33 -3 31 -1 32 34 35 37 3 38 3 38 -32 0 -20 5 -36 10 -36 6 0 10 16 10 35 0 32 2 35 30 35 28 0 30 -3 30 -35 0 -19 5 -35 10 -35 6 0 10 25 10 55 l0 55 -95 0 -95 0 0 -55z"/>
<path d="M386 1830 c-9 -33 8 -138 30 -185 9 -20 18 -34 19 -33 1 2 5 50 8 108 3 61 2 95 -3 80 -4 -14 -8 -52 -9 -84 -2 -92 -24 -54 -31 52 -4 62 -8 80 -14 62z"/>
<path d="M2600 1772 c0 -53 -5 -84 -15 -98 -13 -17 -14 -12 -15 58 0 42 -5 80 -10 83 -9 6 -3 -193 6 -204 2 -2 13 16 24 42 24 53 39 197 21 197 -7 0 -11 -26 -11 -78z"/>
<path d="M2800 1793 c0 -22 3 -23 95 -23 92 0 95 1 95 23 0 21 -3 22 -95 22 -92 0 -95 -1 -95 -22z"/>
<path d="M463 1725 c7 -78 24 -132 48 -152 12 -9 14 5 15 93 0 57 -3 104 -8 104 -4 0 -8 -35 -8 -77 -1 -71 -2 -76 -15 -59 -10 13 -15 44 -15 93 0 48 -4 73 -11 73 -9 0 -10 -22 -6 -75z"/>
<path d="M2526 1725 c-7 -82 -13 -105 -27 -105 -5 0 -9 34 -9 75 0 41 -3 75 -7 75 -5 0 -8 -47 -8 -104 0 -85 2 -102 13 -93 28 22 44 73 49 149 7 100 -2 102 -11 3z"/>
<path d="M547 1730 c-9 -46 8 -145 30 -179 l18 -26 3 58 c2 32 2 81 0 110 l-4 52 -8 -63 c-5 -34 -11 -60 -15 -57 -3 4 -8 37 -11 73 -5 60 -6 63 -13 32z"/>
<path d="M2440 1703 c0 -71 -19 -111 -21 -43 0 25 -4 54 -9 65 -5 12 -8 -21 -7 -87 1 -58 5 -104 10 -101 31 19 64 201 38 217 -8 5 -11 -10 -11 -51z"/>
<path d="M10 1685 c0 -24 2 -25 40 -19 51 8 51 -5 0 -34 -30 -17 -40 -29 -40 -48 l0 -25 43 30 43 29 21 -24 c44 -49 83 -20 83 62 l0 54 -95 0 c-95 0 -95 0 -95 -25z m174 -24 c14 -21 -7 -42 -38 -39 -23 2 -32 8 -34 26 -3 19 1 22 32 22 19 0 37 -4 40 -9z"/>
<path d="M1546 1694 c-31 -30 -16 -74 25 -74 16 0 29 4 29 8 0 4 -12 8 -27 7 -32 0 -40 21 -19 50 12 16 17 18 27 8 7 -7 18 -13 24 -13 11 1 -24 30 -36 30 -4 0 -15 -7 -23 -16z"/>
<path d="M1411 1678 c-5 -13 -11 -34 -15 -48 -6 -23 -6 -23 7 -7 17 20 38 22 56 5 7 -7 4 6 -8 30 -12 23 -24 42 -26 42 -3 0 -9 -10 -14 -22z m29 -19 c0 -5 -7 -9 -15 -9 -9 0 -12 6 -9 15 6 15 24 11 24 -6z"/>
<path d="M312 1595 c-2 -103 9 -174 31 -205 10 -14 12 9 13 124 0 77 -1 125 -3 106 -14 -146 -25 -152 -34 -17 l-5 92 -2 -100z"/>
<path d="M2680 1602 c0 -97 -19 -143 -21 -50 -1 29 -4 64 -8 78 -5 14 -7 -39 -7 -116 1 -78 4 -140 8 -137 4 2 15 28 23 57 15 51 23 241 11 253 -3 4 -6 -35 -6 -85z"/>
<path d="M1631 1658 c-10 -28 -4 -45 19 -58 25 -14 49 -2 56 26 9 37 -2 54 -36 54 -23 0 -33 -6 -39 -22z m67 -14 c4 -25 -20 -47 -42 -38 -16 6 -22 45 -9 58 14 14 48 1 51 -20z"/>
<path d="M1304 1653 c2 -10 7 -28 11 -40 7 -25 39 -31 51 -11 5 8 2 9 -11 4 -21 -8 -35 8 -35 42 0 12 -5 22 -11 22 -6 0 -8 -8 -5 -17z"/>
<path d="M2800 1646 c0 -20 4 -23 38 -22 37 1 37 1 40 -41 l3 -43 -40 0 c-37 0 -41 -3 -41 -24 0 -24 1 -24 95 -24 94 0 95 0 95 24 0 22 -4 24 -45 24 l-45 0 0 46 0 47 45 -5 c42 -5 45 -4 45 18 0 24 -2 24 -95 24 -93 0 -95 0 -95 -24z"/>
<path d="M1732 1616 c-12 -20 -17 -36 -12 -36 5 0 12 9 15 20 10 32 25 23 25 -15 0 -19 4 -35 9 -35 10 0 3 81 -9 93 -4 5 -17 -8 -28 -27z"/>
<path d="M1195 1628 c-11 -6 -21 -12 -23 -13 -6 -5 32 -75 40 -75 5 0 4 10 -3 21 -11 21 -10 22 26 16 31 -5 35 -4 22 6 -8 7 -17 21 -19 31 -4 24 -17 29 -43 14z m28 -29 c-7 -7 -20 -8 -30 -5 -17 7 -17 8 1 22 23 17 48 2 29 -17z"/>
<path d="M382 1543 c-2 -99 11 -180 33 -209 13 -17 14 -1 13 126 -2 98 -3 117 -5 58 -6 -140 -29 -108 -36 47 -3 63 -3 61 -5 -22z"/>
<path d="M2611 1548 c0 -47 -4 -93 -7 -102 -14 -36 -23 -11 -27 72 -2 62 -3 47 -5 -55 -1 -79 0 -143 3 -143 2 0 12 15 21 33 18 32 32 219 21 262 -2 11 -5 -19 -6 -67z"/>
<path d="M1790 1600 c-6 -12 -9 -24 -7 -27 3 -2 11 5 17 17 6 12 9 24 7 27 -3 2 -11 -5 -17 -17z"/>
<path d="M1813 1564 c-12 -19 -14 -30 -6 -43 11 -18 53 -28 53 -12 0 6 -6 8 -13 5 -8 -3 -20 2 -27 11 -11 14 -10 19 6 36 23 22 54 17 55 -10 0 -10 2 -12 6 -3 7 17 -15 42 -38 42 -10 0 -26 -12 -36 -26z"/>
<path d="M450 1493 c1 -99 13 -166 38 -203 16 -24 17 -21 22 110 3 74 2 139 -2 145 -4 5 -8 -28 -8 -74 0 -60 -3 -82 -12 -79 -18 6 -30 67 -26 126 3 29 1 55 -4 58 -4 3 -8 -34 -8 -83z"/>
<path d="M1100 1565 c-17 -20 -5 -62 21 -70 22 -7 59 18 59 40 0 16 -33 45 -52 45 -9 0 -21 -7 -28 -15z m59 -14 c7 -13 6 -23 -3 -36 -23 -32 -67 2 -52 40 8 21 43 19 55 -4z"/>
<path d="M1420 1569 c-169 -27 -330 -180 -369 -350 -24 -104 -5 -241 46 -329 92 -156 278 -254 445 -236 167 19 300 113 376 265 32 65 37 84 40 166 7 147 -29 246 -126 347 -52 54 -172 128 -208 128 -8 0 -14 3 -14 8 0 10 -125 11 -190 1z m160 -17 c0 -21 -68 -45 -111 -39 -27 3 -55 0 -77 -9 -39 -16 -88 -18 -97 -5 -7 12 24 29 80 47 45 14 205 19 205 6z m128 -38 c64 -31 152 -114 181 -171 11 -23 21 -45 21 -48 0 -3 -29 -5 -65 -5 l-65 0 0 -56 0 -55 -42 3 c-39 3 -44 6 -53 35 -5 18 -17 36 -27 39 -10 3 -18 14 -18 25 0 11 -11 24 -24 30 -21 10 -32 6 -84 -30 -34 -22 -64 -45 -67 -51 -4 -6 -21 1 -41 17 -30 22 -35 31 -30 55 4 18 1 28 -7 28 -6 0 -22 3 -34 6 -18 5 -23 2 -23 -12 0 -36 -53 -97 -107 -120 -29 -13 -57 -32 -62 -43 -14 -26 -14 -98 0 -106 21 -14 -22 -45 -62 -45 -37 0 -38 1 -45 46 -22 148 47 315 169 410 45 35 46 35 72 18 26 -17 29 -17 80 1 29 9 64 15 77 12 34 -9 98 8 122 33 25 26 56 22 134 -16z m223 -261 c6 -16 14 -67 16 -115 5 -73 2 -99 -17 -159 -68 -211 -278 -343 -493 -309 -145 22 -272 113 -336 240 -38 77 -38 85 -3 86 15 0 41 2 57 4 20 3 29 1 27 -8 -1 -6 2 -12 8 -12 12 0 190 -149 190 -159 0 -13 122 -132 128 -126 16 16 29 99 19 116 -9 14 -5 24 19 51 17 19 40 51 53 71 l23 37 134 0 134 0 0 25 c0 15 -7 28 -17 32 -10 4 -45 33 -77 65 -33 32 -64 58 -68 58 -4 0 -8 5 -8 10 0 6 16 10 35 10 l35 0 0 48 c0 27 3 52 7 55 3 4 33 7 65 7 55 0 59 -2 69 -27z"/>
<path d="M2542 1513 c-1 -39 -7 -84 -13 -100 -10 -26 -12 -27 -19 -8 -5 11 -9 48 -9 83 -1 35 -4 61 -8 59 -5 -3 -7 -67 -5 -142 3 -118 5 -135 18 -124 27 22 45 112 41 210 -3 86 -3 88 -5 22z"/>
<path d="M537 1483 c-14 -88 7 -205 43 -238 19 -17 19 -14 22 124 2 78 0 141 -4 141 -5 0 -8 -19 -9 -42 0 -24 -4 -63 -7 -87 -11 -70 -31 -30 -34 69 -3 85 -3 85 -11 33z"/>
<path d="M1885 1500 c-16 -16 -24 -30 -19 -30 6 0 23 14 39 30 16 17 24 30 19 30 -6 0 -23 -13 -39 -30z"/>
<path d="M2452 1460 c2 -77 -6 -120 -23 -120 -5 0 -9 19 -10 43 0 23 -4 62 -9 87 -5 31 -7 1 -6 -98 l1 -143 22 25 c11 14 26 48 32 76 14 63 14 170 1 190 -7 10 -9 -8 -8 -60z"/>
<path d="M6 1504 c-20 -53 9 -104 60 -104 28 0 38 6 54 33 33 55 40 61 58 43 13 -12 13 -20 4 -41 -9 -20 -9 -25 3 -25 37 0 23 93 -16 105 -31 10 -55 -3 -83 -46 -31 -46 -59 -49 -64 -6 -2 18 2 29 13 33 13 6 14 8 3 15 -19 12 -25 11 -32 -7z"/>
<path d="M1025 1500 c-18 -20 -18 -21 10 -50 29 -30 58 -43 36 -16 -9 11 -10 20 -1 36 9 16 8 25 -1 36 -15 19 -22 18 -44 -6z m45 -8 c0 -15 -22 -30 -36 -25 -11 4 -12 9 -3 19 12 15 39 19 39 6z"/>
<path d="M1916 1476 c-28 -23 -28 -24 -11 -50 10 -15 20 -24 23 -21 3 3 -3 13 -12 24 -23 26 -2 39 25 15 20 -18 27 -6 7 14 -9 9 -9 15 -1 23 8 8 14 5 23 -11 6 -12 14 -19 17 -16 6 6 -26 46 -36 46 -3 -1 -19 -11 -35 -24z"/>
<path d="M1973 1409 c-41 -26 -43 -35 -3 -14 l31 16 -21 -41 c-11 -22 -18 -40 -16 -40 14 0 76 35 76 43 0 5 -11 2 -25 -7 -36 -24 -39 -20 -16 18 33 53 27 59 -26 25z"/>
<path d="M2795 1371 c-8 -46 13 -104 43 -120 36 -19 98 -13 127 12 42 36 44 147 3 147 -9 0 -9 -3 0 -12 13 -13 16 -67 4 -84 -4 -6 -17 -16 -29 -23 -78 -41 -172 39 -116 101 15 17 15 18 -5 18 -16 0 -22 -8 -27 -39z"/>
<path d="M982 1389 c2 -6 8 -10 13 -10 5 0 11 4 13 10 2 6 -4 11 -13 11 -9 0 -15 -5 -13 -11z"/>
<path d="M315 1240 c2 -120 6 -155 23 -204 26 -72 44 -95 31 -40 -4 22 -9 111 -10 199 -1 113 -4 148 -10 120 -4 -22 -8 -71 -8 -110 -1 -113 -20 -63 -24 65 -3 79 -3 69 -2 -30z"/>
<path d="M930 1355 c-20 -24 -7 -47 33 -61 21 -7 37 -9 37 -3 0 5 -7 9 -15 9 -25 0 -17 28 13 39 21 9 22 10 4 7 -14 -3 -25 1 -29 10 -7 18 -27 18 -43 -1z m32 -21 c-5 -25 -10 -30 -22 -18 -13 13 -2 46 14 41 6 -2 9 -13 8 -23z"/>
<path d="M2645 1255 c3 -55 1 -140 -5 -190 -5 -49 -8 -91 -6 -93 2 -2 14 23 26 54 13 37 22 87 24 139 2 44 1 56 -1 28 -7 -85 -23 -61 -24 35 0 48 -5 96 -10 107 -6 13 -8 -13 -4 -80z"/>
<path d="M10 1313 c0 -22 3 -23 95 -23 92 0 95 1 95 23 0 21 -3 22 -95 22 -92 0 -95 -1 -95 -22z"/>
<path d="M2000 1310 c-16 -16 -18 -25 -10 -40 6 -11 18 -20 28 -20 16 1 16 1 0 11 -24 13 -23 36 3 49 27 15 52 -4 43 -34 -5 -17 -4 -19 7 -9 10 10 10 18 1 38 -14 30 -44 33 -72 5z"/>
<path d="M392 1158 c4 -118 10 -168 26 -218 19 -59 79 -166 88 -157 2 1 -4 27 -13 57 -10 37 -17 114 -20 239 -6 200 -22 231 -24 46 -1 -60 -4 -123 -8 -140 l-7 -30 -14 40 c-9 26 -14 89 -14 177 -1 76 -5 138 -10 138 -5 0 -6 -69 -4 -152z"/>
<path d="M2601 1305 c-1 -5 -2 -50 -1 -100 1 -87 -14 -217 -28 -239 -10 -16 -20 74 -21 192 -1 56 -5 102 -9 102 -5 0 -9 -69 -9 -152 0 -141 -13 -247 -39 -313 -7 -18 -6 -18 9 -6 30 24 85 148 96 218 10 57 12 328 2 298z"/>
<path d="M2691 1284 c0 -11 3 -14 6 -6 3 7 2 16 -1 19 -3 4 -6 -2 -5 -13z"/>
<path d="M915 1271 c36 -15 81 -23 70 -13 -5 5 -28 12 -50 16 -25 3 -33 3 -20 -3z"/>
<path d="M900 1242 c0 -5 15 -16 33 -24 l32 -16 -33 -8 c-18 -3 -35 -10 -37 -14 -3 -4 12 -4 33 1 20 5 40 9 45 9 18 0 4 17 -33 38 -22 12 -40 19 -40 14z"/>
<path d="M505 1152 c-4 -49 -2 -125 5 -175 18 -149 63 -240 160 -330 84 -79 110 -91 64 -30 -87 113 -120 229 -131 451 -3 78 -9 142 -13 142 -12 0 -16 -79 -10 -223 3 -75 1 -137 -3 -137 -28 0 -65 227 -54 333 2 26 1 50 -3 52 -5 3 -11 -34 -15 -83z"/>
<path d="M2050 1233 c-14 -3 -29 -9 -35 -15 -11 -11 40 -1 65 13 16 9 11 9 -30 2z"/>
<path d="M2481 1235 c-1 -5 -3 -66 -5 -135 -5 -139 -19 -222 -43 -242 -15 -12 -15 1 -9 143 7 148 3 209 -14 209 -4 0 -10 -64 -13 -142 -8 -220 -43 -340 -128 -448 -22 -28 -35 -50 -30 -50 5 0 45 34 89 75 83 78 130 154 151 245 16 67 24 269 13 315 -6 22 -10 36 -11 30z"/>
<path d="M10 1154 c0 -60 3 -68 30 -96 28 -28 36 -30 78 -25 66 7 82 31 82 118 l0 69 -95 0 -95 0 0 -66z m176 -16 c-9 -48 -23 -58 -77 -58 -56 0 -89 24 -89 65 0 25 1 25 86 25 l86 0 -6 -32z"/>
<path d="M2023 1187 c18 -15 23 -47 7 -47 -5 0 -10 -5 -10 -10 0 -6 18 -1 40 10 47 24 50 35 13 44 -16 4 -37 9 -48 12 -19 5 -19 4 -2 -9z m51 -28 c-8 -14 -24 -10 -24 6 0 9 6 12 15 9 8 -4 12 -10 9 -15z"/>
<path d="M897 1143 c-4 -3 -7 -19 -7 -35 0 -27 2 -28 48 -27 26 1 37 4 25 6 -27 5 -29 20 -6 45 17 19 5 26 -14 7 -8 -8 -13 -8 -17 0 -8 12 -20 14 -29 4z m31 -36 c2 -10 -3 -17 -12 -17 -10 0 -16 9 -16 21 0 24 23 21 28 -4z"/>
<path d="M2020 1041 c0 -54 69 -62 85 -10 9 26 5 30 -44 36 -40 6 -41 5 -41 -26z m77 5 c2 -2 1 -11 -3 -20 -10 -27 -58 -17 -62 13 -4 22 -1 23 29 17 18 -3 34 -8 36 -10z"/>
<path d="M974 1038 c8 -35 -15 -39 -33 -5 -11 21 -11 21 -6 -5 7 -37 -20 -38 -29 -2 -4 15 -9 24 -12 21 -3 -2 -2 -16 2 -31 6 -27 25 -32 72 -20 24 7 28 30 11 54 -8 12 -9 9 -5 -12z"/>
<path d="M10 984 c0 -8 11 -16 25 -20 21 -5 25 -12 25 -44 0 -32 -4 -39 -25 -44 -18 -5 -25 -13 -25 -30 l0 -24 97 38 c54 21 99 43 101 48 1 5 -43 27 -98 49 -70 28 -100 36 -100 27z m120 -54 c18 -11 13 -16 -23 -25 -23 -6 -27 -4 -27 14 0 22 24 28 50 11z"/>
<path d="M967 973 c-4 -3 -7 -19 -7 -35 0 -19 -4 -28 -12 -25 -7 2 -13 14 -12 26 0 15 -2 19 -10 11 -7 -7 -7 -16 0 -28 18 -28 39 -20 42 16 4 40 28 38 25 -2 -1 -14 2 -24 8 -21 13 9 11 39 -3 53 -14 14 -22 15 -31 5z"/>
<path d="M1996 955 c-4 -15 -5 -29 -3 -32 3 -2 7 8 11 22 9 36 40 34 32 -2 -6 -25 -5 -26 5 -8 16 28 16 28 28 21 7 -5 7 -15 1 -31 -5 -14 -7 -25 -5 -25 10 0 26 53 18 61 -4 4 -24 10 -44 14 -34 6 -37 5 -43 -20z"/>
<path d="M2800 918 l0 -53 95 0 95 -1 0 53 c0 32 -4 53 -11 53 -7 0 -10 -12 -7 -30 4 -29 3 -30 -34 -30 -36 0 -38 2 -38 30 0 17 -4 30 -10 30 -5 0 -10 -13 -10 -30 0 -27 -3 -30 -30 -30 -27 0 -30 3 -30 30 0 17 -4 30 -10 30 -5 0 -10 -24 -10 -52z"/>
<path d="M1952 859 c-16 -26 -15 -38 2 -16 13 17 16 17 46 2 18 -9 34 -14 37 -11 3 2 -13 14 -34 25 -38 19 -39 19 -51 0z"/>
<path d="M1051 849 c16 -30 -5 -49 -23 -20 -7 11 -16 21 -21 21 -4 0 0 -11 8 -24 21 -32 -2 -41 -28 -12 l-18 21 10 -22 c17 -33 26 -35 65 -12 34 20 35 21 20 45 -20 30 -29 32 -13 3z"/>
<path d="M1931 808 c4 -30 -3 -38 -28 -39 -27 0 -27 -1 7 -14 19 -7 43 -14 53 -14 16 -1 16 2 -3 39 -20 40 -32 51 -29 28z m26 -54 c-9 -9 -28 6 -21 18 4 6 10 6 17 -1 6 -6 8 -13 4 -17z"/>
<path d="M1056 774 c-21 -21 -20 -37 4 -59 20 -18 21 -18 50 10 28 27 29 30 13 47 -20 22 -46 23 -67 2z m59 -5 c4 -6 -3 -21 -16 -35 -17 -18 -25 -21 -36 -13 -7 6 -13 17 -13 23 0 29 51 49 65 25z"/>
<path d="M2865 773 c-11 -3 -30 -14 -42 -26 -20 -17 -23 -31 -23 -89 l0 -68 95 0 95 0 0 65 c0 57 -3 69 -25 90 -13 14 -31 25 -39 25 -8 0 -20 2 -28 4 -7 2 -22 1 -33 -1z m89 -64 c18 -14 26 -30 26 -50 l0 -30 -82 3 c-77 3 -83 5 -86 25 -2 14 6 32 22 48 31 31 83 33 120 4z"/>
<path d="M10 705 c0 -57 3 -69 25 -90 35 -36 105 -37 143 -2 19 17 22 31 22 89 l0 68 -95 0 -95 0 0 -65z m180 0 c0 -38 -42 -75 -83 -75 -47 0 -87 33 -87 71 l0 29 85 0 c84 0 85 0 85 -25z"/>
<path d="M2537 763 c-4 -3 -7 -48 -7 -98 l0 -92 -50 -7 c-68 -9 -75 -27 -8 -19 29 3 56 8 60 12 5 4 17 211 12 211 0 0 -4 -3 -7 -7z"/>
<path d="M451 669 c-1 -66 3 -100 12 -106 16 -14 130 -26 123 -14 -4 5 -31 13 -61 16 l-55 7 -1 77 c0 42 -4 85 -9 96 -6 13 -9 -13 -9 -76z"/>
<path d="M1855 706 c19 -29 19 -29 -3 -22 -67 19 -64 19 -54 -1 6 -10 20 -27 33 -38 l22 -20 -19 30 c-18 28 -18 29 -1 22 11 -4 30 -10 44 -13 22 -6 24 -5 15 12 -6 11 -20 28 -33 39 l-22 20 18 -29z"/>
<path d="M1155 686 c-18 -26 -13 -46 14 -63 17 -11 23 -7 46 23 26 34 26 36 9 49 -28 21 -52 18 -69 -9z m54 5 c12 -8 12 -13 -3 -36 -19 -28 -39 -29 -44 -1 -4 16 14 46 27 46 3 0 12 -4 20 -9z"/>
<path d="M1740 665 c-14 -8 -20 -14 -15 -14 6 -1 17 3 25 9 25 16 32 -13 7 -33 l-22 -18 22 10 c28 14 33 14 33 -3 0 -8 -9 -18 -21 -21 -11 -4 -18 -9 -16 -12 4 -4 42 11 55 22 5 4 -31 75 -37 75 -3 -1 -17 -7 -31 -15z"/>
<path d="M1251 623 c-1 -29 2 -53 6 -53 11 0 63 53 63 64 0 6 -4 6 -11 -1 -15 -15 -39 -5 -49 21 -7 16 -9 8 -9 -31z m39 -7 c0 -2 -7 -9 -15 -16 -12 -10 -15 -10 -15 4 0 9 7 16 15 16 8 0 15 -2 15 -4z"/>
<path d="M1645 624 c-9 -9 -13 -19 -10 -23 4 -3 11 2 16 12 13 23 36 22 49 -2 15 -29 2 -54 -26 -48 -13 2 -21 0 -18 -4 8 -13 38 -11 52 3 17 17 15 42 -6 61 -23 21 -36 21 -57 1z"/>
<path d="M1336 608 c-26 -37 -17 -57 30 -72 19 -6 23 -1 32 36 6 23 10 43 9 44 -1 1 -14 4 -29 8 -21 5 -30 1 -42 -16z m54 -13 c0 -27 -13 -45 -31 -45 -14 0 -19 7 -19 29 0 29 14 42 38 33 6 -2 12 -10 12 -17z"/>
<path d="M1555 610 c-4 -7 2 -9 19 -4 20 5 26 2 26 -10 0 -9 -6 -16 -14 -16 -8 0 -17 -4 -20 -8 -3 -5 4 -8 16 -8 32 1 33 -22 1 -27 -27 -4 -27 -4 5 -6 34 -1 37 4 26 58 -5 24 -12 31 -30 31 -12 0 -26 -5 -29 -10z"/>
<path d="M1424 576 c-3 -21 -4 -39 -1 -42 3 -4 9 10 13 30 3 21 4 39 1 42 -3 4 -9 -10 -13 -30z"/>
<path d="M1464 596 c-8 -20 3 -36 26 -36 10 0 22 -5 25 -10 10 -16 -24 -23 -43 -9 -16 12 -15 11 1 -6 14 -16 21 -17 35 -9 24 15 21 27 -11 42 -15 7 -27 17 -27 23 0 13 34 11 49 -3 11 -11 13 -10 9 2 -6 21 -56 26 -64 6z"/>
<path d="M370 563 c-14 -3 -29 -9 -35 -15 -7 -7 -4 -8 10 -4 11 3 37 6 57 8 20 1 34 6 32 10 -5 8 -21 8 -64 1z"/>
<path d="M2560 562 c0 -5 20 -12 45 -14 25 -2 45 0 45 4 0 5 -6 8 -14 8 -7 0 -28 3 -45 6 -18 4 -31 2 -31 -4z"/>
<path d="M531 189 c-6 -13 -22 -53 -36 -89 -15 -36 -29 -71 -32 -77 -3 -7 0 -13 6 -13 6 0 16 11 21 25 8 20 16 25 45 25 29 0 37 -5 45 -25 6 -15 17 -25 30 -25 26 0 26 0 -14 99 -41 100 -51 113 -65 80z m24 -86 c5 -20 3 -23 -19 -23 -30 0 -30 0 -14 35 12 27 22 24 33 -12z"/>
<path d="M1267 200 c-40 -12 -55 -27 -66 -66 -15 -55 3 -103 47 -121 83 -35 162 8 162 88 0 53 -14 78 -55 95 -38 16 -48 16 -88 4z m77 -29 c25 -28 31 -83 12 -119 -14 -27 -22 -32 -51 -32 -41 0 -65 29 -65 78 0 78 61 121 104 73z"/>
<path d="M1833 199 c-67 -20 -90 -117 -39 -167 22 -23 35 -27 82 -27 49 0 59 4 80 28 17 20 24 40 24 68 0 53 -14 78 -55 95 -39 16 -47 16 -92 3z m86 -35 c25 -32 27 -74 6 -114 -13 -24 -22 -30 -49 -30 -38 0 -53 14 -62 58 -18 90 55 149 105 86z"/>
<path d="M2443 193 c-3 -10 -21 -55 -39 -101 -23 -58 -29 -82 -19 -82 7 0 16 11 19 25 5 21 12 25 41 25 29 0 37 -5 45 -25 6 -17 17 -25 33 -25 l24 0 -40 100 c-40 100 -52 116 -64 83z m21 -75 c9 -35 8 -38 -18 -38 -23 0 -24 2 -15 30 13 36 24 38 33 8z"/>
<path d="M710 125 c0 -67 3 -79 25 -100 30 -31 82 -33 119 -4 24 19 26 26 26 100 0 46 -4 79 -10 79 -6 0 -10 -30 -10 -71 0 -89 -10 -109 -56 -109 -44 0 -58 30 -51 118 5 60 4 62 -19 62 -23 0 -24 -3 -24 -75z"/>
<path d="M970 190 c0 -5 14 -10 31 -10 l30 0 -3 -85 c-3 -82 -2 -85 20 -85 21 0 22 4 22 85 0 84 0 85 25 85 14 0 25 5 25 10 0 6 -32 10 -75 10 -43 0 -75 -4 -75 -10z"/>
<path d="M1500 105 c0 -57 4 -95 10 -95 6 0 10 29 10 68 l1 67 63 -67 c35 -38 70 -68 77 -68 11 0 14 22 14 95 0 69 -3 95 -12 95 -9 0 -13 -19 -13 -62 l-1 -63 -57 63 c-82 89 -92 85 -92 -33z"/>
<path d="M2090 193 c0 -5 -6 -47 -14 -95 -11 -73 -11 -88 1 -88 9 0 13 15 13 49 0 28 4 52 8 55 5 3 20 -20 35 -50 15 -29 31 -54 36 -54 6 0 22 27 37 60 14 33 30 57 35 54 5 -3 9 -30 9 -60 0 -52 1 -54 26 -54 24 0 26 3 21 33 -4 17 -9 60 -13 95 -4 42 -11 62 -20 62 -8 0 -29 -30 -48 -67 l-34 -68 -33 68 c-18 37 -39 67 -46 67 -7 0 -13 -3 -13 -7z"/>
</g>
</svg>